# xmcd
#
# Track frame offsets: 
#        150
#        26059
#        44202
#        64012
#        79878
#        96726
#        119005
#        132695
#        167154
#        187184
#        202723
#        217001
#        239272
#        259307
#
# Disc length: 3835 seconds
#
# Revision: 2
# Processed by: cddbd v1.5.2PL0 Copyright (c) Steve Scherf et al.
# Submitted via: ExactAudioCopy v0.99pb4
#
DISCID=e40ef90e
DTITLE=Matt Mays and El Torpedo - Matt Mays and El Torpedo
DYEAR=2005
DGENRE=Rock
TTITLE0=Stand Down At Sundown
TTITLE1=Travellin'
TTITLE2=Cocaine Cowgirl
TTITLE3=The Plan
TTITLE4=Ain't So Heavy
TTITLE5=St. George's Lane
TTITLE6=Move Your Mind
TTITLE7=What Are We Gonna Do Come The Month Of September?
TTITLE8=Good People
TTITLE9=Lost Souls
TTITLE10=It Don't Matter
TTITLE11=On The Hood
TTITLE12=Time Of Your Life
TTITLE13=Wicked Come Winter
EXTD=
EXTT0=
EXTT1=
EXTT2=
EXTT3=
EXTT4=
EXTT5=
EXTT6=
EXTT7=
EXTT8=
EXTT9=
EXTT10=
EXTT11=
EXTT12=
EXTT13=
PLAYORDER=
